<svg width="50" height="50" viewBox="0 0 50 50" fill="none" xmlns="http://www.w3.org/2000/svg">
<path d="M41.7707 22.1458L32.0415 17.9583L29.8748 17.0417C29.5415 16.875 29.2498 16.4375 29.2498 16.0625V9.68751C29.2498 7.68751 27.7707 5.31251 25.979 4.39584C25.354 4.08334 24.604 4.08334 23.979 4.39584C22.2082 5.31251 20.729 7.70834 20.729 9.70834V16.0833C20.729 16.4583 20.4373 16.8958 20.104 17.0625L8.229 22.1667C6.9165 22.7083 5.854 24.3542 5.854 25.7708V28.5208C5.854 30.2917 7.18734 31.1667 8.83317 30.4583L19.2707 25.9583C20.0832 25.6042 20.7498 26.0417 20.7498 26.9375V29.25V33C20.7498 33.4792 20.479 34.1667 20.1457 34.5L15.3123 39.3542C14.8123 39.8542 14.5832 40.8333 14.8123 41.5417L15.7498 44.375C16.1248 45.6042 17.5207 46.1875 18.6665 45.6042L23.6248 41.4375C24.3748 40.7917 25.604 40.7917 26.354 41.4375L31.3123 45.6042C32.4582 46.1667 33.854 45.6042 34.2707 44.375L35.2082 41.5417C35.4373 40.8542 35.2082 39.8542 34.7082 39.3542L29.8748 34.5C29.5207 34.1667 29.2498 33.4792 29.2498 33V26.9375C29.2498 26.0417 29.8957 25.625 30.729 25.9583L41.1665 30.4583C42.8123 31.1667 44.1457 30.2917 44.1457 28.5208V25.7708C44.1457 24.3542 43.0832 22.7083 41.7707 22.1458Z" fill="#FAFAFA"/>
</svg>
