<svg width="34" height="34" viewBox="0 0 34 34" fill="none" xmlns="http://www.w3.org/2000/svg">
<path d="M22.9358 2.83334H11.0641C5.90742 2.83334 2.83325 5.90751 2.83325 11.0642V22.9217C2.83325 28.0925 5.90742 31.1667 11.0641 31.1667H22.9216C28.0783 31.1667 31.1524 28.0925 31.1524 22.9358V11.0642C31.1666 5.90751 28.0924 2.83334 22.9358 2.83334ZM26.2224 18.6858C26.2224 19.5358 25.5708 19.9608 24.7916 19.6208L20.0458 17.5808C19.4933 17.3542 19.0541 17.6375 19.0541 18.2325V20.8533C19.0541 21.08 19.1816 21.4058 19.3516 21.5758L21.6749 23.9133C21.9158 24.1542 22.0291 24.6358 21.9158 24.9617L21.4624 26.3217C21.2641 26.9167 20.5841 27.2 20.0316 26.9167L17.6658 24.905C17.2974 24.6075 16.7024 24.6075 16.3483 24.905L13.9683 26.9167C13.4016 27.2 12.7358 26.9167 12.5374 26.3075L12.0841 24.9475C11.9708 24.6217 12.0841 24.14 12.3249 23.8992L14.6908 21.5758C14.8466 21.42 14.9883 21.0942 14.9883 20.8533V18.2325C14.9883 17.6375 14.5349 17.34 13.9966 17.5808L9.25075 19.6208C8.45742 19.9608 7.81992 19.5358 7.81992 18.6858V17.3683C7.81992 16.6883 8.34409 15.895 8.96742 15.6258L14.5491 13.2175C14.7758 13.1183 14.9741 12.8208 14.9741 12.5658V9.63334C14.9741 8.67001 15.6683 7.52251 16.5324 7.09751C16.8441 6.94168 17.1983 6.94168 17.5099 7.09751C18.3599 7.53668 19.0683 8.67001 19.0683 9.63334V12.5658C19.0683 12.8208 19.2524 13.1183 19.4933 13.2175L25.0749 15.6258C25.7124 15.895 26.2224 16.6883 26.2224 17.3683V18.6858Z" fill="#557D96"/>
</svg>
