<svg width="50" height="50" viewBox="0 0 50 50" fill="none" xmlns="http://www.w3.org/2000/svg">
<path d="M24.9998 4.16669C13.5207 4.16669 4.1665 13.5209 4.1665 25C4.1665 36.4792 13.5207 45.8334 24.9998 45.8334C36.479 45.8334 45.8332 36.4792 45.8332 25C45.8332 13.5209 36.479 4.16669 24.9998 4.16669ZM30.8123 26.1042L23.4582 33.4584C23.1457 33.7709 22.7498 33.9167 22.354 33.9167C21.9582 33.9167 21.5623 33.7709 21.2498 33.4584C20.6457 32.8542 20.6457 31.8542 21.2498 31.25L27.4998 25L21.2498 18.75C20.6457 18.1459 20.6457 17.1459 21.2498 16.5417C21.854 15.9375 22.854 15.9375 23.4582 16.5417L30.8123 23.8959C31.4373 24.5 31.4373 25.5 30.8123 26.1042Z" fill="#112B3C"/>
</svg>
