<svg width="50" height="50" viewBox="0 0 50 50" fill="none" xmlns="http://www.w3.org/2000/svg">
<path d="M24.9998 4.16669C13.5207 4.16669 4.1665 13.5209 4.1665 25C4.1665 36.4792 13.5207 45.8334 24.9998 45.8334C36.479 45.8334 45.8332 36.4792 45.8332 25C45.8332 13.5209 36.479 4.16669 24.9998 4.16669ZM28.729 31.25C29.3332 31.8542 29.3332 32.8542 28.729 33.4584C28.4165 33.7709 28.0207 33.9167 27.6248 33.9167C27.229 33.9167 26.8332 33.7709 26.5207 33.4584L19.1665 26.1042C18.5623 25.5 18.5623 24.5 19.1665 23.8959L26.5207 16.5417C27.1248 15.9375 28.1248 15.9375 28.729 16.5417C29.3332 17.1459 29.3332 18.1459 28.729 18.75L22.479 25L28.729 31.25Z" fill="#B1B1B1"/>
</svg>
