<svg width="18" height="18" viewBox="0 0 18 18" fill="none" xmlns="http://www.w3.org/2000/svg">
<path d="M3 10.125V14.175C3 15.45 4.0425 16.5 5.325 16.5H12.675C13.95 16.5 15 15.4575 15 14.175V10.125C15 9.915 14.835 9.75 14.625 9.75H3.375C3.165 9.75 3 9.915 3 10.125ZM6.66 13.785C6.4875 13.965 6.2475 14.0625 6 14.0625C5.94 14.0625 5.88 14.055 5.82 14.0475C5.76 14.0325 5.7 14.0175 5.64 13.9875C5.5875 13.965 5.5275 13.935 5.4825 13.905C5.43 13.8675 5.3775 13.83 5.34 13.785C5.16 13.6125 5.0625 13.3725 5.0625 13.125C5.0625 12.8775 5.16 12.6375 5.34 12.465C5.3775 12.42 5.43 12.3825 5.4825 12.345C5.5275 12.315 5.5875 12.285 5.64 12.2625C5.7 12.2325 5.76 12.2175 5.82 12.2025C6.12 12.1425 6.4425 12.2475 6.66 12.465C6.84 12.6375 6.9375 12.8775 6.9375 13.125C6.9375 13.3725 6.84 13.6125 6.66 13.785ZM12.66 13.785C12.6225 13.83 12.57 13.8675 12.5175 13.905C12.4725 13.935 12.4125 13.965 12.36 13.9875C12.3 14.0175 12.24 14.0325 12.1875 14.0475C12.12 14.055 12.06 14.0625 12 14.0625C11.94 14.0625 11.88 14.055 11.82 14.0475C11.76 14.0325 11.7 14.0175 11.64 13.9875C11.5875 13.965 11.5275 13.935 11.4825 13.905C11.43 13.8675 11.3775 13.83 11.34 13.785C11.16 13.6125 11.0625 13.3725 11.0625 13.125C11.0625 12.8775 11.16 12.6375 11.34 12.465C11.3775 12.42 11.43 12.3825 11.4825 12.345C11.5275 12.315 11.5875 12.285 11.64 12.2625C11.7 12.2325 11.76 12.2175 11.82 12.2025C11.94 12.18 12.06 12.18 12.1875 12.2025C12.24 12.2175 12.3 12.2325 12.36 12.2625C12.4125 12.285 12.4725 12.315 12.5175 12.345C12.57 12.3825 12.6225 12.42 12.66 12.465C12.84 12.6375 12.9375 12.8775 12.9375 13.125C12.9375 13.3725 12.84 13.6125 12.66 13.785Z" fill="#646464"/>
<path d="M12.675 1.5H5.325C4.0425 1.5 3 2.5425 3 3.825V5.625C3 5.835 3.165 6 3.375 6H14.625C14.835 6 15 5.835 15 5.625V3.825C15 2.5425 13.9575 1.5 12.675 1.5ZM10.875 4.3125H7.125C6.8175 4.3125 6.5625 4.0575 6.5625 3.75C6.5625 3.4425 6.8175 3.1875 7.125 3.1875H10.875C11.1825 3.1875 11.4375 3.4425 11.4375 3.75C11.4375 4.0575 11.1825 4.3125 10.875 4.3125Z" fill="#646464"/>
<path d="M14.625 9H3.375C3.165 9 3 8.835 3 8.625V7.125C3 6.915 3.165 6.75 3.375 6.75H14.625C14.835 6.75 15 6.915 15 7.125V8.625C15 8.835 14.835 9 14.625 9Z" fill="#646464"/>
</svg>
