<svg width="34" height="34" viewBox="0 0 34 34" fill="none" xmlns="http://www.w3.org/2000/svg">
<path d="M30.8125 11.3333C30.8125 11.9142 30.3308 12.3958 29.75 12.3958H4.25C3.66917 12.3958 3.1875 11.9142 3.1875 11.3333C3.1875 10.7525 3.66917 10.2708 4.25 10.2708H5.695L6.23333 7.70666C6.74333 5.22749 7.80583 2.94666 12.0275 2.94666H21.9725C26.1942 2.94666 27.2567 5.22749 27.7667 7.70666L28.305 10.2708H29.75C30.3308 10.2708 30.8125 10.7525 30.8125 11.3333Z" fill="#557D96"/>
<path d="M31.4217 19.3516C31.2092 17.0141 30.5858 14.5208 26.0383 14.5208H7.96168C3.41418 14.5208 2.80501 17.0141 2.57834 19.3516L1.78501 27.9791C1.68584 29.0558 2.04001 30.1325 2.77668 30.94C3.52751 31.7616 4.59001 32.2291 5.72334 32.2291H8.38668C10.6817 32.2291 11.1208 30.9116 11.4042 30.0475L11.6875 29.1975C12.0133 28.22 12.0983 27.9791 13.3733 27.9791H20.6267C21.9017 27.9791 21.9442 28.1208 22.3125 29.1975L22.5958 30.0475C22.8792 30.9116 23.3183 32.2291 25.6133 32.2291H28.2767C29.3958 32.2291 30.4725 31.7616 31.2233 30.94C31.96 30.1325 32.3142 29.0558 32.215 27.9791L31.4217 19.3516ZM12.75 22.3125H8.50001C7.91918 22.3125 7.43751 21.8308 7.43751 21.25C7.43751 20.6691 7.91918 20.1875 8.50001 20.1875H12.75C13.3308 20.1875 13.8125 20.6691 13.8125 21.25C13.8125 21.8308 13.3308 22.3125 12.75 22.3125ZM25.5 22.3125H21.25C20.6692 22.3125 20.1875 21.8308 20.1875 21.25C20.1875 20.6691 20.6692 20.1875 21.25 20.1875H25.5C26.0808 20.1875 26.5625 20.6691 26.5625 21.25C26.5625 21.8308 26.0808 22.3125 25.5 22.3125Z" fill="#557D96"/>
</svg>
