<svg width="20" height="20" viewBox="0 0 20 20" fill="none" xmlns="http://www.w3.org/2000/svg">
<path d="M9.99984 1.66667C5.40817 1.66667 1.6665 5.40834 1.6665 10C1.6665 14.5917 5.40817 18.3333 9.99984 18.3333C14.5915 18.3333 18.3332 14.5917 18.3332 10C18.3332 5.40834 14.5915 1.66667 9.99984 1.66667ZM12.7998 11.9167C13.0415 12.1583 13.0415 12.5583 12.7998 12.8C12.6748 12.925 12.5165 12.9833 12.3582 12.9833C12.1998 12.9833 12.0415 12.925 11.9165 12.8L9.99984 10.8833L8.08317 12.8C7.95817 12.925 7.79984 12.9833 7.6415 12.9833C7.48317 12.9833 7.32484 12.925 7.19984 12.8C6.95817 12.5583 6.95817 12.1583 7.19984 11.9167L9.1165 10L7.19984 8.08334C6.95817 7.84167 6.95817 7.44167 7.19984 7.20001C7.4415 6.95834 7.8415 6.95834 8.08317 7.20001L9.99984 9.11667L11.9165 7.20001C12.1582 6.95834 12.5582 6.95834 12.7998 7.20001C13.0415 7.44167 13.0415 7.84167 12.7998 8.08334L10.8832 10L12.7998 11.9167Z" fill="#112B3C"/>
</svg>
