<svg width="59" height="59" viewBox="0 0 59 59" fill="none" xmlns="http://www.w3.org/2000/svg">
<g clip-path="url(#clip0_247_1694)">
<path d="M39.8005 4.91675H19.1997C10.2513 4.91675 4.91675 10.2513 4.91675 19.1997V39.7759C4.91675 48.7488 10.2513 54.0834 19.1997 54.0834H39.7759C48.7242 54.0834 54.0588 48.7488 54.0588 39.8005V19.1997C54.0834 10.2513 48.7488 4.91675 39.8005 4.91675ZM37.7601 35.1543C38.473 35.8672 38.473 37.0472 37.7601 37.7601C37.3913 38.1288 36.9242 38.3009 36.4572 38.3009C35.9901 38.3009 35.523 38.1288 35.1542 37.7601L29.5001 32.1059L23.8459 37.7601C23.4772 38.1288 23.0101 38.3009 22.543 38.3009C22.0759 38.3009 21.6088 38.1288 21.2401 37.7601C20.5272 37.0472 20.5272 35.8672 21.2401 35.1543L26.8942 29.5001L21.2401 23.8459C20.5272 23.133 20.5272 21.953 21.2401 21.2401C21.953 20.5272 23.133 20.5272 23.8459 21.2401L29.5001 26.8942L35.1542 21.2401C35.8672 20.5272 37.0472 20.5272 37.7601 21.2401C38.473 21.953 38.473 23.133 37.7601 23.8459L32.1059 29.5001L37.7601 35.1543Z" fill="#646464"/>
</g>
<defs>
<clipPath id="clip0_247_1694">
<rect width="59" height="59" fill="white"/>
</clipPath>
</defs>
</svg>
