<svg width="31" height="31" viewBox="0 0 31 31" fill="none" xmlns="http://www.w3.org/2000/svg">
<path d="M27.125 28.4166H3.875C3.34542 28.4166 2.90625 27.9775 2.90625 27.4479C2.90625 26.9183 3.34542 26.4791 3.875 26.4791H27.125C27.6546 26.4791 28.0938 26.9183 28.0938 27.4479C28.0938 27.9775 27.6546 28.4166 27.125 28.4166Z" fill="#557D96"/>
<path d="M24.5675 4.49498C22.0617 1.98915 19.6075 1.92456 17.0371 4.49498L15.4742 6.0579C15.345 6.18706 15.2933 6.39373 15.345 6.57456C16.3267 9.99748 19.065 12.7358 22.4879 13.7175C22.5396 13.7304 22.5912 13.7433 22.6429 13.7433C22.785 13.7433 22.9142 13.6916 23.0175 13.5883L24.5675 12.0254C25.8462 10.7596 26.4662 9.53248 26.4662 8.29248C26.4792 7.01373 25.8592 5.77373 24.5675 4.49498Z" fill="#557D96"/>
<path d="M20.1629 14.8929C19.7883 14.7121 19.4266 14.5312 19.0779 14.3246C18.7937 14.1567 18.5225 13.9758 18.2512 13.7821C18.0316 13.64 17.7733 13.4333 17.5279 13.2267C17.502 13.2137 17.4116 13.1362 17.3083 13.0329C16.882 12.6712 16.4041 12.2062 15.9779 11.6896C15.9391 11.6637 15.8745 11.5733 15.7841 11.4571C15.655 11.3021 15.4354 11.0437 15.2416 10.7467C15.0866 10.5529 14.9058 10.2687 14.7379 9.98457C14.5312 9.63582 14.3504 9.28707 14.1695 8.92541C14.1091 8.79581 14.0529 8.66767 14.0002 8.54144C13.8595 8.20513 13.4237 8.10835 13.1659 8.3661L5.6058 15.9262C5.43788 16.0942 5.28288 16.4171 5.24413 16.6367L4.54663 21.5837C4.41746 22.4621 4.66288 23.2887 5.20538 23.8442C5.67038 24.2962 6.31621 24.5417 7.01371 24.5417C7.16871 24.5417 7.32371 24.5287 7.47871 24.5029L12.4387 23.8054C12.6712 23.7667 12.9941 23.6117 13.1491 23.4437L20.7021 15.8908C20.9617 15.6312 20.8633 15.1871 20.5242 15.0464C20.4066 14.9976 20.2867 14.9466 20.1629 14.8929Z" fill="#557D96"/>
</svg>
