<svg width="34" height="34" viewBox="0 0 34 34" fill="none" xmlns="http://www.w3.org/2000/svg">
<path d="M29.5093 11.3475L20.2301 3.92417C18.4168 2.47917 15.5834 2.46501 13.7843 3.91001L4.50511 11.3475C3.17344 12.41 2.36594 14.535 2.64928 16.2067L4.43428 26.8883C4.84511 29.2825 7.06928 31.1667 9.49178 31.1667H24.5084C26.9026 31.1667 29.1693 29.24 29.5801 26.8742L31.3651 16.1925C31.6201 14.535 30.8126 12.41 29.5093 11.3475ZM18.0626 25.5C18.0626 26.0808 17.5809 26.5625 17.0001 26.5625C16.4193 26.5625 15.9376 26.0808 15.9376 25.5V21.25C15.9376 20.6692 16.4193 20.1875 17.0001 20.1875C17.5809 20.1875 18.0626 20.6692 18.0626 21.25V25.5Z" fill="#557D96"/>
</svg>
