<svg width="29" height="29" viewBox="0 0 29 29" fill="none" xmlns="http://www.w3.org/2000/svg">
<path d="M20.5417 4.83337H8.45841C4.83341 4.83337 2.41675 6.64587 2.41675 10.875V15.1767C2.41675 15.6238 2.87591 15.9017 3.27466 15.7205C4.45883 15.1767 5.82425 14.9713 7.26216 15.225C10.4401 15.793 12.7722 18.7413 12.6876 21.9675C12.6755 22.475 12.603 22.9705 12.4701 23.4538C12.3734 23.8284 12.6755 24.1788 13.0622 24.1788H20.5417C24.1667 24.1788 26.5834 22.3663 26.5834 18.1371V10.875C26.5834 6.64587 24.1667 4.83337 20.5417 4.83337ZM14.5001 17.5209C12.8326 17.5209 11.4792 16.1675 11.4792 14.5C11.4792 12.8325 12.8326 11.4792 14.5001 11.4792C16.1676 11.4792 17.5209 12.8325 17.5209 14.5C17.5209 16.1675 16.1676 17.5209 14.5001 17.5209ZM23.2605 16.9167C23.2605 17.4121 22.8497 17.823 22.3542 17.823C21.8588 17.823 21.448 17.4121 21.448 16.9167V12.0834C21.448 11.588 21.8588 11.1771 22.3542 11.1771C22.8497 11.1771 23.2605 11.588 23.2605 12.0834V16.9167Z" fill="#557D96"/>
<path d="M6.04159 16.9166C3.37117 16.9166 1.20825 19.0795 1.20825 21.75C1.20825 22.6562 1.462 23.5141 1.90909 24.2391C2.74284 25.6408 4.27742 26.5833 6.04159 26.5833C7.80575 26.5833 9.34034 25.6408 10.1741 24.2391C10.6212 23.5141 10.8749 22.6562 10.8749 21.75C10.8749 19.0795 8.712 16.9166 6.04159 16.9166ZM8.422 21.3512L5.84825 23.7316C5.67909 23.8887 5.4495 23.9733 5.232 23.9733C5.00242 23.9733 4.77284 23.8887 4.59159 23.7075L3.39534 22.5112C3.04492 22.1608 3.04492 21.5808 3.39534 21.2304C3.74575 20.88 4.32575 20.88 4.67617 21.2304L5.25617 21.8104L7.1895 20.022C7.552 19.6837 8.132 19.7079 8.47034 20.0704C8.80867 20.4329 8.7845 21.0129 8.422 21.3512Z" fill="#557D96"/>
</svg>
