<svg width="29" height="29" viewBox="0 0 29 29" fill="none" xmlns="http://www.w3.org/2000/svg">
<path d="M19.563 2.41663H9.43716C5.03883 2.41663 2.41675 5.03871 2.41675 9.43704V19.5508C2.41675 23.9612 5.03883 26.5833 9.43716 26.5833H19.5509C23.9492 26.5833 26.5713 23.9612 26.5713 19.5629V9.43704C26.5834 5.03871 23.9613 2.41663 19.563 2.41663ZM14.5001 21.762C10.6697 21.762 7.55217 18.6445 7.55217 14.8141C7.55217 13.4366 7.95091 12.0954 8.72425 10.9595C9.00216 10.5366 9.57008 10.4279 9.98092 10.7058C10.3917 10.9837 10.5126 11.5516 10.2226 11.9625C9.66675 12.8083 9.36467 13.7991 9.36467 14.8141C9.36467 17.6416 11.6726 19.9495 14.5001 19.9495C17.3276 19.9495 19.6355 17.6416 19.6355 14.8141C19.6355 11.9866 17.3276 9.67871 14.5001 9.67871C14.2705 9.67871 14.053 9.70288 13.8234 9.72704L14.5001 10.2225C14.8988 10.5125 14.9955 11.0804 14.6934 11.4912C14.5122 11.7329 14.2342 11.8658 13.9563 11.8658C13.7751 11.8658 13.5817 11.8054 13.4247 11.6966L11.0805 9.96871C11.0805 9.96871 11.0684 9.95662 11.0563 9.94454C11.0442 9.93246 11.0322 9.93246 11.0201 9.92038C10.9838 9.89621 10.9717 9.84788 10.9355 9.81163C10.8992 9.76329 10.863 9.72704 10.8267 9.66663C10.8026 9.61829 10.7905 9.55788 10.7663 9.50954C10.7542 9.44913 10.7301 9.40079 10.7301 9.34038C10.7301 9.27996 10.7301 9.23163 10.7422 9.17121C10.7422 9.11079 10.7422 9.06246 10.7663 9.00204C10.7663 8.94163 10.8026 8.89329 10.8267 8.83288C10.8509 8.79663 10.8509 8.74829 10.8872 8.69996C10.8992 8.69996 10.9113 8.68788 10.9234 8.67579C10.9355 8.66371 10.9355 8.65163 10.9476 8.63954L12.9655 6.33163C13.2917 5.95704 13.8717 5.90871 14.2463 6.24704C14.6209 6.57329 14.6572 7.15329 14.3309 7.52788L13.9926 7.91454C14.1617 7.90246 14.3309 7.87829 14.5122 7.87829C18.3426 7.87829 21.4601 10.9958 21.4601 14.8262C21.4601 18.6566 18.3305 21.762 14.5001 21.762Z" fill="#557D96"/>
</svg>
