<svg width="20" height="20" viewBox="0 0 20 20" fill="none" xmlns="http://www.w3.org/2000/svg">
<path d="M1.6665 8.12496C1.32484 8.12496 1.0415 7.84163 1.0415 7.49996V5.41663C1.0415 2.99996 3.00817 1.04163 5.4165 1.04163H7.49984C7.8415 1.04163 8.12484 1.32496 8.12484 1.66663C8.12484 2.00829 7.8415 2.29163 7.49984 2.29163H5.4165C3.6915 2.29163 2.2915 3.69163 2.2915 5.41663V7.49996C2.2915 7.84163 2.00817 8.12496 1.6665 8.12496Z" fill="#557D96"/>
<path d="M18.3333 8.12496C17.9917 8.12496 17.7083 7.84163 17.7083 7.49996V5.41663C17.7083 3.69163 16.3083 2.29163 14.5833 2.29163H12.5C12.1583 2.29163 11.875 2.00829 11.875 1.66663C11.875 1.32496 12.1583 1.04163 12.5 1.04163H14.5833C16.9917 1.04163 18.9583 2.99996 18.9583 5.41663V7.49996C18.9583 7.84163 18.675 8.12496 18.3333 8.12496Z" fill="#557D96"/>
<path d="M14.5835 18.9584H13.3335C12.9918 18.9584 12.7085 18.675 12.7085 18.3334C12.7085 17.9917 12.9918 17.7084 13.3335 17.7084H14.5835C16.3085 17.7084 17.7085 16.3084 17.7085 14.5834V13.3334C17.7085 12.9917 17.9918 12.7084 18.3335 12.7084C18.6752 12.7084 18.9585 12.9917 18.9585 13.3334V14.5834C18.9585 17 16.9918 18.9584 14.5835 18.9584Z" fill="#557D96"/>
<path d="M7.49984 18.9583H5.4165C3.00817 18.9583 1.0415 17 1.0415 14.5833V12.5C1.0415 12.1583 1.32484 11.875 1.6665 11.875C2.00817 11.875 2.2915 12.1583 2.2915 12.5V14.5833C2.2915 16.3083 3.6915 17.7083 5.4165 17.7083H7.49984C7.8415 17.7083 8.12484 17.9917 8.12484 18.3333C8.12484 18.675 7.8415 18.9583 7.49984 18.9583Z" fill="#557D96"/>
<path d="M7.5 4.375H5.83333C4.88333 4.375 4.375 4.875 4.375 5.83333V7.5C4.375 8.45833 4.88333 8.95833 5.83333 8.95833H7.5C8.45 8.95833 8.95833 8.45833 8.95833 7.5V5.83333C8.95833 4.875 8.45 4.375 7.5 4.375Z" fill="#557D96"/>
<path d="M14.1665 4.375H12.4998C11.5498 4.375 11.0415 4.875 11.0415 5.83333V7.5C11.0415 8.45833 11.5498 8.95833 12.4998 8.95833H14.1665C15.1165 8.95833 15.6248 8.45833 15.6248 7.5V5.83333C15.6248 4.875 15.1165 4.375 14.1665 4.375Z" fill="#557D96"/>
<path d="M7.5 11.0416H5.83333C4.88333 11.0416 4.375 11.5416 4.375 12.5V14.1666C4.375 15.125 4.88333 15.625 5.83333 15.625H7.5C8.45 15.625 8.95833 15.125 8.95833 14.1666V12.5C8.95833 11.5416 8.45 11.0416 7.5 11.0416Z" fill="#557D96"/>
<path d="M14.1665 11.0416H12.4998C11.5498 11.0416 11.0415 11.5416 11.0415 12.5V14.1666C11.0415 15.125 11.5498 15.625 12.4998 15.625H14.1665C15.1165 15.625 15.6248 15.125 15.6248 14.1666V12.5C15.6248 11.5416 15.1165 11.0416 14.1665 11.0416Z" fill="#557D96"/>
</svg>
