<svg width="24" height="24" viewBox="0 0 24 24" fill="none" xmlns="http://www.w3.org/2000/svg">
<path d="M5.73986 16C5.84986 15.51 5.64986 14.81 5.29986 14.46L2.86986 12.03C2.10986 11.27 1.80986 10.46 2.02986 9.76C2.25986 9.06 2.96986 8.58 4.02986 8.4L7.14986 7.88C7.59986 7.8 8.14986 7.4 8.35986 6.99L10.0799 3.54C10.5799 2.55 11.2599 2 11.9999 2C12.7399 2 13.4199 2.55 13.9199 3.54L15.6399 6.99C15.7699 7.25 16.0399 7.5 16.3299 7.67L5.55986 18.44C5.41986 18.58 5.17986 18.45 5.21986 18.25L5.73986 16Z" fill="#112B3C"/>
<path d="M18.6998 14.46C18.3398 14.82 18.1398 15.51 18.2598 16L18.9498 19.01C19.2398 20.26 19.0598 21.2 18.4398 21.65C18.1898 21.83 17.8898 21.92 17.5398 21.92C17.0298 21.92 16.4298 21.73 15.7698 21.34L12.8398 19.6C12.3798 19.33 11.6198 19.33 11.1598 19.6L8.2298 21.34C7.1198 21.99 6.1698 22.1 5.5598 21.65C5.3298 21.48 5.1598 21.25 5.0498 20.95L17.2098 8.79002C17.6698 8.33002 18.3198 8.12002 18.9498 8.23002L19.9598 8.40002C21.0198 8.58002 21.7298 9.06002 21.9598 9.76002C22.1798 10.46 21.8798 11.27 21.1198 12.03L18.6998 14.46Z" fill="#112B3C"/>
</svg>
