<svg width="57" height="57" viewBox="0 0 57 57" fill="none" xmlns="http://www.w3.org/2000/svg">
<path d="M28.5 0C44.2401 0 57 12.7599 57 28.5C57 44.2401 44.2401 57 28.5 57C12.7599 57 0 44.2401 0 28.5C0 12.7599 12.7599 0 28.5 0ZM30.5039 53.9229C29.8429 53.9742 29.1745 54 28.5 54C27.8255 54 27.1571 53.9742 26.4961 53.9229L26.457 54.4209L26.4189 54.9189C27.1056 54.9723 27.7996 55 28.5 55C29.2 55 29.8937 54.9722 30.5801 54.9189L30.5039 53.9229ZM18.3564 52.9873C19.6277 53.5145 20.9485 53.9456 22.3105 54.2715L22.332 54.1826L22.4277 53.7871L22.4268 53.7861L22.5439 53.3008C21.2336 52.9873 19.9623 52.5726 18.7393 52.0654L18.3564 52.9873ZM38.2607 52.0654C37.0377 52.5726 35.7664 52.9873 34.4561 53.3008L34.5723 53.7861V53.7871L34.668 54.1826L34.6885 54.2715C36.0505 53.9456 37.3713 53.5145 38.6426 52.9873L38.2607 52.0654ZM11.29 48.6494C12.3428 49.5494 13.4665 50.3684 14.6523 51.0967L15.1758 50.2461C14.0348 49.5454 12.9526 48.7577 11.9395 47.8916L11.29 48.6494ZM45.0605 47.8916C44.0474 48.7577 42.9652 49.5454 41.8242 50.2461L42.3467 51.0967C43.5325 50.3685 44.6562 49.5494 45.709 48.6494L45.0605 47.8916ZM5.90234 42.3467C6.63052 43.5325 7.44966 44.6562 8.34961 45.709L9.1084 45.0605C8.2423 44.0474 7.45456 42.9652 6.75391 41.8242L5.90234 42.3467ZM50.2461 41.8242C49.5454 42.9652 48.7577 44.0474 47.8916 45.0605L48.6494 45.709C49.5494 44.6562 50.3685 43.5325 51.0967 42.3467L50.2461 41.8242ZM3.21289 34.5723L2.72754 34.6885C3.05339 36.0505 3.48461 37.3714 4.01172 38.6426L4.93457 38.2607C4.42739 37.0377 4.01273 35.7664 3.69922 34.4561L3.21289 34.5723ZM53.3008 34.4561C52.9873 35.7664 52.5726 37.0377 52.0654 38.2607L52.9873 38.6426C53.5145 37.3713 53.9456 36.0505 54.2715 34.6885L53.7871 34.5723H53.7861L53.3008 34.4561ZM2.08008 26.4189C2.02674 27.1056 2 27.7996 2 28.5C2 29.2 2.02679 29.8937 2.08008 30.5801L2.57812 30.542L3.07715 30.5039C3.0258 29.8429 3 29.1745 3 28.5C3 27.8255 3.0258 27.1571 3.07715 26.4961L2.57812 26.457H2.5791L2.08008 26.4189ZM54.4209 26.457L53.9229 26.4961C53.9742 27.1571 54 27.8255 54 28.5C54 29.1745 53.9742 29.8429 53.9229 30.5039L54.4209 30.542V30.543L54.9189 30.5801C54.9722 29.8937 55 29.2 55 28.5C55 27.7996 54.9723 27.1056 54.9189 26.4189L54.4209 26.457ZM4.01172 18.3564C3.48457 19.6276 3.05343 20.9486 2.72754 22.3105L3.21289 22.4277V22.4268L3.69922 22.5439C4.01273 21.2336 4.42739 19.9623 4.93457 18.7393L4.01172 18.3564ZM52.0654 18.7393C52.5726 19.9623 52.9873 21.2336 53.3008 22.5439L53.7861 22.4268L53.7871 22.4277L54.2715 22.3105C53.9456 20.9485 53.5145 19.6277 52.9873 18.3564L52.0654 18.7393ZM8.34961 11.29C7.44965 12.3428 6.63054 13.4665 5.90234 14.6523L6.75391 15.1758C7.45456 14.0348 8.24229 12.9526 9.1084 11.9395L8.34961 11.29ZM47.8916 11.9395C48.7577 12.9526 49.5454 14.0348 50.2461 15.1758L51.0967 14.6523C50.3684 13.4665 49.5494 12.3428 48.6494 11.29L47.8916 11.9395ZM14.6523 5.90234C13.4665 6.63054 12.3428 7.44965 11.29 8.34961L11.9395 9.1084C12.9526 8.24229 14.0348 7.45456 15.1758 6.75391L14.6523 5.90234ZM41.8242 6.75391C42.9652 7.45456 44.0474 8.24229 45.0605 9.1084L45.709 8.34961C44.6562 7.44966 43.5325 6.63052 42.3467 5.90234L41.8242 6.75391ZM22.3105 2.72754C20.9486 3.05343 19.6276 3.48457 18.3564 4.01172L18.7393 4.93457C19.9623 4.42739 21.2336 4.01273 22.5439 3.69922L22.4268 3.21289H22.4277L22.3105 2.72754ZM34.5723 3.21289L34.4561 3.69922C35.7664 4.01273 37.0377 4.42739 38.2607 4.93457L38.6426 4.01172C37.3714 3.48461 36.0505 3.05339 34.6885 2.72754L34.5723 3.21289ZM28.5 2C27.7996 2 27.1056 2.02674 26.4189 2.08008L26.457 2.57812L26.4961 3.07715C27.1571 3.0258 27.8255 3 28.5 3C29.1745 3 29.8429 3.0258 30.5039 3.07715L30.542 2.57812L30.543 2.5791L30.5801 2.08008C29.8937 2.02679 29.2 2 28.5 2Z" fill="#557D96"/>
</svg>
